<?xml version="1.0" encoding="UTF-8"?> <svg xmlns="http://www.w3.org/2000/svg" id="Layer_2" data-name="Layer 2" viewBox="0 0 729.66 126.17"><defs><style> .cls-1 { fill: #353746; } .cls-1, .cls-2 { stroke-width: 0px; } .cls-2 { fill: #00b0f0; } </style></defs><g id="Layer_1-2" data-name="Layer 1"><g><path class="cls-2" d="m60.18,20.76L2.01,65.62c-1.8,1.34-2.18,3.89-.84,5.69l.09.11c1.33,1.8,3.87,2.19,5.67.86,0,0,.01-.01.02-.02l.11-.09,58.27-44.84c1.81-1.34,2.19-3.89.85-5.7l-.09-.09h0c-1.47-1.72-4.01-2.05-5.88-.76l-.04-.02Z"></path><path class="cls-2" d="m70.83,37.71c-1.34-1.81-3.89-2.18-5.7-.84h0s-.11.09-.11.09L2.04,85.44c-1.8,1.35-2.17,3.9-.83,5.7,0,0,0,0,0,0,.03.03.05.07.07.1,1.35,1.8,3.9,2.17,5.7.82l.11-.09,62.97-48.46c1.76-1.43,2.09-3.98.76-5.81Z"></path><path class="cls-2" d="m.79,51.72c1.34,1.81,3.89,2.18,5.7.84h0s.11-.09.11-.09h0L62.35,9.6l31.88,24.24-23.61,18.21c-1.96,1.16-2.61,3.68-1.45,5.63,1.1,1.86,3.44,2.55,5.37,1.59.2-.11.4-.23.58-.37.16-.09.31-.2.43-.33l27.89-21.55h0l.22-.22h0l.44-.44c1.31-1.84.97-4.38-.78-5.8L64.97,1.05c-.56-.45-1.24-.72-1.96-.76h-.87c-.71.1-1.38.36-1.96.77L1.87,45.91c-1.88,1.2-2.44,3.69-1.25,5.57.06.08.11.17.17.24Z"></path><path class="cls-2" d="m118.79,54.28l-58.27,44.86c-1.8,1.32-2.19,3.85-.87,5.66h0c.03.05.06.09.1.13h0c1.32,1.8,3.85,2.19,5.65.87,0,0,.02-.01.03-.02.04-.03.08-.06.12-.09l58.27-44.86c1.8-1.33,2.18-3.88.85-5.68-.04-.04-.07-.08-.1-.13-1.41-1.79-3.98-2.12-5.8-.75h0Z"></path><path class="cls-2" d="m54.92,88.74c1.34,1.81,3.89,2.19,5.7.85h0s.11-.09.11-.09l63.08-48.49c1.81-1.39,2.15-3.99.75-5.8-1.39-1.81-3.99-2.15-5.8-.75h0l-62.93,48.49c-1.85,1.34-2.27,3.93-.92,5.79h0Z"></path><path class="cls-2" d="m124.96,74.84h0c-1.33-1.8-3.87-2.18-5.67-.85,0,0,0,0,0,0l-.13.1-55.76,42.88-31.88-24.36,23.61-18.17c1.81-1.39,2.15-3.99.75-5.8-1.39-1.81-3.99-2.15-5.8-.75l-27.88,21.55h0l-.22.23h0l-.44.43c-1.32,1.84-.98,4.38.77,5.81l38.69,29.47c.55.46,1.24.73,1.96.76h.98c.71-.08,1.38-.35,1.96-.76l58.27-44.86c1.74-1.37,2.09-3.88.78-5.67Z"></path><path class="cls-1" d="m189.69,33.79h-22.33V6.37h0c0-3.52-2.85-6.37-6.37-6.37s-6.37,2.85-6.37,6.37h0l.15,90.9c0,3.52,2.85,6.37,6.37,6.37s6.37-2.85,6.37-6.37l-.13-51.24h22.33c13.24,0,19.05,5.66,19.06,15.53l.06,35.69h0c0,3.52,2.85,6.37,6.37,6.37s6.37-2.85,6.37-6.37l-.05-35.69c.15-17.49-10.37-27.78-31.83-27.76Z"></path><path class="cls-1" d="m282.73,34.42h-18.17c-17.51,0-28.33,10.11-28.3,31.35.03,21.24,10.99,31.39,28.41,31.35l28.9-.05v2.94c0,9.41-3.15,13.35-13.01,13.37l-37.44.06c-3.52-.11-6.46,2.64-6.57,6.16-.11,3.52,2.64,6.46,6.16,6.57h.43l39.08-.05c18.28,0,24.83-7.38,24.8-25.99l-.06-37.88c-.24-18.79-8.58-27.85-24.23-27.83Zm10.78,50.77l-27.55.02c-11.27,0-16.43-5.65-16.45-19.01-.02-13.36,5.11-19.06,16.39-19.07h13.03c10.51,0,14.57,4.57,14.59,15.18v22.9-.02Z"></path><path class="cls-1" d="m350.95,47.56l38.2-.06c3.69,0,6.68-2.99,6.68-6.68,0-3.69-2.99-6.68-6.68-6.68h0l-38.31.07c-16.09,0-22.53,7.84-22.53,20.17,0,10.63,4.74,20.14,23.78,20.11h16.31c6.86,0,9.85,2.17,9.86,7.76,0,5.58-2.62,7.55-8.96,7.56l-40.28.07c-3.72,0-6.75,3-6.76,6.72,0,3.53,2.71,6.47,6.23,6.74h.44l40.49-.06c16.2,0,22.65-8.69,22.63-21.05,0-10.78-4.9-19.48-23.89-19.45h-16.31c-7.78,0-9.85-2.62-9.86-7.43-.02-5.14,2.61-7.77,8.95-7.79Z"></path><rect class="cls-1" x="432" y=".17" width="3.89" height="126"></rect><g><path class="cls-1" d="m483.99,31.48c-1.72,0-3.29-.34-4.71-1.04s-2.63-1.61-3.65-2.75c-1.02-1.14-1.81-2.45-2.36-3.93-.56-1.47-.83-2.98-.83-4.52s.29-3.15.88-4.62c.59-1.47,1.4-2.78,2.43-3.91,1.03-1.13,2.25-2.03,3.67-2.7,1.42-.67,2.96-1,4.64-1s3.29.36,4.71,1.07c1.42.71,2.63,1.65,3.64,2.8,1.01,1.16,1.79,2.46,2.35,3.93.55,1.46.83,2.95.83,4.47,0,1.61-.29,3.15-.87,4.62s-1.39,2.77-2.43,3.89c-1.04,1.12-2.27,2.02-3.69,2.69-1.42.67-2.95,1-4.61,1Zm-7.68-12.24c0,1.13.18,2.23.54,3.3.36,1.06.88,2.01,1.55,2.82.67.82,1.48,1.47,2.43,1.95.95.49,2.02.73,3.2.73s2.31-.25,3.25-.76,1.74-1.18,2.4-2.02c.66-.84,1.16-1.78,1.5-2.82s.51-2.11.51-3.2c0-1.16-.18-2.26-.54-3.31-.36-1.05-.88-1.98-1.55-2.79-.67-.8-1.47-1.45-2.41-1.94-.94-.49-1.99-.73-3.14-.73-1.22,0-2.31.25-3.26.76-.95.51-1.76,1.17-2.41,1.99-.66.82-1.16,1.75-1.51,2.8-.35,1.05-.53,2.12-.53,3.21Z"></path><path class="cls-1" d="m507.86,31.31V7.17h16.08v3.37h-12.27v7.21h10.27v3.16h-10.27v10.4h-3.81Z"></path><path class="cls-1" d="m535.87,31.31V7.17h16.08v3.37h-12.27v7.21h10.27v3.16h-10.27v10.4h-3.81Z"></path><path class="cls-1" d="m577.31,12.85c-.23-.25-.56-.52-.99-.8-.43-.28-.94-.55-1.51-.8-.58-.25-1.21-.45-1.9-.61s-1.4-.24-2.12-.24c-1.61,0-2.79.29-3.55.88-.76.59-1.14,1.41-1.14,2.45,0,.59.12,1.07.36,1.44.24.38.61.7,1.1.99.5.28,1.12.53,1.87.75s1.62.45,2.62.7c1.22.29,2.33.62,3.32.99.99.36,1.82.8,2.5,1.33.68.52,1.21,1.16,1.58,1.92s.56,1.68.56,2.77c0,1.22-.23,2.28-.7,3.16-.46.88-1.1,1.6-1.9,2.16s-1.74.96-2.8,1.22c-1.07.26-2.21.39-3.43.39-1.84,0-3.61-.28-5.32-.83-1.71-.55-3.26-1.37-4.64-2.43l1.73-3.26c.29.29.72.62,1.27.99.55.36,1.2.7,1.94,1s1.54.57,2.4.78c.86.21,1.76.32,2.69.32,1.5,0,2.65-.26,3.47-.78.82-.52,1.22-1.29,1.22-2.31,0-.61-.15-1.12-.46-1.53s-.74-.76-1.31-1.07c-.57-.31-1.26-.58-2.07-.83-.82-.25-1.75-.51-2.79-.78-1.2-.32-2.25-.65-3.15-1-.9-.35-1.64-.78-2.23-1.27-.59-.5-1.04-1.08-1.34-1.75-.31-.67-.46-1.48-.46-2.43,0-1.18.23-2.23.68-3.15.45-.92,1.07-1.69,1.85-2.31.78-.62,1.71-1.09,2.77-1.41,1.06-.32,2.22-.48,3.47-.48,1.63,0,3.14.26,4.52.78,1.38.52,2.59,1.17,3.64,1.94l-1.73,3.13Z"></path><path class="cls-1" d="m611.96,7.17v24.14h-3.84v-10.64h-12.17v10.64h-3.81V7.17h3.81v10.1h12.17V7.17h3.84Z"></path><path class="cls-1" d="m635.76,31.48c-1.72,0-3.29-.34-4.71-1.04s-2.63-1.61-3.65-2.75c-1.02-1.14-1.81-2.45-2.36-3.93-.56-1.47-.83-2.98-.83-4.52s.29-3.15.88-4.62c.59-1.47,1.4-2.78,2.43-3.91,1.03-1.13,2.25-2.03,3.67-2.7,1.42-.67,2.96-1,4.64-1s3.29.36,4.71,1.07c1.42.71,2.63,1.65,3.64,2.8,1.01,1.16,1.79,2.46,2.35,3.93.55,1.46.83,2.95.83,4.47,0,1.61-.29,3.15-.87,4.62s-1.39,2.77-2.43,3.89c-1.04,1.12-2.27,2.02-3.69,2.69-1.42.67-2.95,1-4.61,1Zm-7.68-12.24c0,1.13.18,2.23.54,3.3.36,1.06.88,2.01,1.55,2.82.67.82,1.48,1.47,2.43,1.95.95.49,2.02.73,3.2.73s2.31-.25,3.25-.76,1.74-1.18,2.4-2.02c.66-.84,1.16-1.78,1.5-2.82s.51-2.11.51-3.2c0-1.16-.18-2.26-.54-3.31-.36-1.05-.88-1.98-1.55-2.79-.67-.8-1.47-1.45-2.41-1.94-.94-.49-1.99-.73-3.14-.73-1.22,0-2.31.25-3.26.76-.95.51-1.76,1.17-2.41,1.99-.66.82-1.16,1.75-1.51,2.8-.35,1.05-.53,2.12-.53,3.21Z"></path><path class="cls-1" d="m659.62,31.31V7.17h10.5c1.09,0,2.09.23,3.01.68s1.71,1.05,2.36,1.79c.66.74,1.17,1.58,1.55,2.52.37.94.56,1.9.56,2.87,0,.82-.11,1.6-.34,2.35s-.54,1.44-.95,2.07-.91,1.18-1.5,1.65c-.59.46-1.24.81-1.94,1.04l5.68,9.18h-4.32l-5.24-8.4h-5.58v8.4h-3.81Zm3.81-11.76h6.66c.54,0,1.04-.12,1.48-.36.44-.24.82-.57,1.14-.99.32-.42.57-.9.75-1.44.18-.54.27-1.12.27-1.73s-.11-1.19-.32-1.73c-.22-.54-.5-1.02-.85-1.43s-.76-.73-1.22-.97c-.46-.24-.95-.36-1.45-.36h-6.46v9.01Z"></path><path class="cls-1" d="m706.98,27.94v3.37h-16.56V7.17h16.25v3.37h-12.44v6.87h10.78v3.16h-10.78v7.38h12.75Z"></path><path class="cls-1" d="m488.24,56.74c-.23-.25-.56-.51-.99-.8-.43-.28-.94-.55-1.51-.8-.58-.25-1.21-.45-1.9-.61s-1.4-.24-2.12-.24c-1.61,0-2.79.29-3.55.88-.76.59-1.14,1.4-1.14,2.45,0,.59.12,1.07.36,1.45.24.37.61.7,1.1.99.5.28,1.12.53,1.87.75s1.62.45,2.62.7c1.22.29,2.33.62,3.32.99.99.36,1.82.8,2.5,1.33.68.52,1.21,1.16,1.58,1.92.37.76.56,1.68.56,2.77,0,1.22-.23,2.28-.7,3.16-.46.88-1.1,1.6-1.9,2.16-.8.56-1.74.96-2.8,1.22-1.07.26-2.21.39-3.43.39-1.84,0-3.61-.28-5.32-.83-1.71-.56-3.26-1.37-4.64-2.43l1.73-3.26c.29.29.72.62,1.27.99.55.36,1.2.7,1.94,1s1.54.57,2.4.78c.86.22,1.76.32,2.69.32,1.5,0,2.65-.26,3.47-.78.82-.52,1.22-1.29,1.22-2.31,0-.61-.15-1.12-.46-1.53-.31-.41-.74-.76-1.31-1.07-.57-.31-1.26-.58-2.07-.83-.82-.25-1.75-.51-2.79-.78-1.2-.32-2.25-.65-3.15-1s-1.64-.78-2.23-1.28c-.59-.5-1.04-1.08-1.34-1.75s-.46-1.48-.46-2.43c0-1.18.23-2.23.68-3.14s1.07-1.69,1.85-2.31c.78-.62,1.71-1.09,2.77-1.41,1.06-.32,2.22-.48,3.47-.48,1.63,0,3.14.26,4.52.78,1.38.52,2.59,1.17,3.64,1.94l-1.73,3.13Z"></path><path class="cls-1" d="m520.61,54.43h-8.02v20.77h-3.84v-20.77h-8.06v-3.37h19.92v3.37Z"></path><path class="cls-1" d="m536.89,51.06h3.33l9.52,24.14h-4.01l-2.55-6.56h-9.31l-2.52,6.56h-4.04l9.59-24.14Zm5.54,14.75l-3.88-10.37-4.01,10.37h7.89Z"></path><path class="cls-1" d="m561.06,75.2v-24.14h16.08v3.37h-12.27v7.21h10.27v3.16h-10.27v10.4h-3.81Z"></path><path class="cls-1" d="m589.08,75.2v-24.14h16.08v3.37h-12.27v7.21h10.27v3.16h-10.27v10.4h-3.81Z"></path><path class="cls-1" d="m617.09,75.2v-24.14h3.81v24.14h-3.81Z"></path><path class="cls-1" d="m638.47,58.2v17h-3.81v-24.14h2.99l13.8,17.41v-17.37h3.84v24.1h-3.16l-13.67-17Z"></path><path class="cls-1" d="m685.97,72.21c-2.04,2.11-4.39,3.16-7.04,3.16-1.61,0-3.11-.33-4.49-1-1.38-.67-2.58-1.57-3.6-2.7-1.02-1.13-1.82-2.45-2.4-3.94-.58-1.5-.87-3.06-.87-4.69s.29-3.18.87-4.66,1.38-2.77,2.4-3.88c1.02-1.11,2.23-1.99,3.64-2.63s2.94-.97,4.59-.97c2.31,0,4.25.48,5.81,1.44,1.56.96,2.74,2.24,3.54,3.83l-2.92,2.11c-.66-1.31-1.56-2.3-2.72-2.96-1.16-.66-2.43-.99-3.81-.99-1.13,0-2.17.24-3.09.73-.93.49-1.72,1.13-2.38,1.94-.66.8-1.16,1.74-1.51,2.8-.35,1.07-.53,2.18-.53,3.33,0,1.22.2,2.37.59,3.43.4,1.06.94,1.99,1.63,2.79.69.79,1.51,1.42,2.46,1.89.95.46,1.98.7,3.09.7,1.22,0,2.4-.28,3.52-.85s2.19-1.46,3.21-2.69v-2.58h-5.07v-2.82h8.26v12.21h-3.2v-2.99Z"></path><path class="cls-1" d="m488.24,100.63c-.23-.25-.56-.52-.99-.8-.43-.28-.94-.55-1.51-.8-.58-.25-1.21-.45-1.9-.61s-1.4-.24-2.12-.24c-1.61,0-2.79.29-3.55.88-.76.59-1.14,1.41-1.14,2.45,0,.59.12,1.07.36,1.44.24.37.61.7,1.1.99.5.28,1.12.53,1.87.75s1.62.45,2.62.7c1.22.29,2.33.62,3.32.99.99.36,1.82.8,2.5,1.33.68.52,1.21,1.16,1.58,1.92.37.76.56,1.68.56,2.77,0,1.22-.23,2.28-.7,3.16-.46.88-1.1,1.6-1.9,2.16-.8.56-1.74.96-2.8,1.22-1.07.26-2.21.39-3.43.39-1.84,0-3.61-.28-5.32-.83-1.71-.56-3.26-1.37-4.64-2.43l1.73-3.26c.29.29.72.62,1.27.99.55.36,1.2.7,1.94,1s1.54.57,2.4.78c.86.22,1.76.32,2.69.32,1.5,0,2.65-.26,3.47-.78.82-.52,1.22-1.29,1.22-2.31,0-.61-.15-1.12-.46-1.53s-.74-.76-1.31-1.07c-.57-.31-1.26-.58-2.07-.83-.82-.25-1.75-.51-2.79-.78-1.2-.32-2.25-.65-3.15-1s-1.64-.78-2.23-1.28c-.59-.5-1.04-1.08-1.34-1.75-.31-.67-.46-1.48-.46-2.43,0-1.18.23-2.23.68-3.14s1.07-1.69,1.85-2.31c.78-.62,1.71-1.09,2.77-1.41,1.06-.32,2.22-.48,3.47-.48,1.63,0,3.14.26,4.52.78,1.38.52,2.59,1.17,3.64,1.94l-1.73,3.13Z"></path><path class="cls-1" d="m513.09,119.26c-1.72,0-3.29-.35-4.71-1.04-1.42-.69-2.63-1.61-3.65-2.75-1.02-1.14-1.81-2.45-2.36-3.93-.56-1.47-.83-2.98-.83-4.52s.29-3.15.88-4.62c.59-1.47,1.4-2.78,2.43-3.91,1.03-1.13,2.25-2.03,3.67-2.7,1.42-.67,2.96-1,4.64-1s3.29.36,4.71,1.07c1.42.71,2.63,1.65,3.64,2.81,1.01,1.16,1.79,2.46,2.35,3.93.55,1.46.83,2.95.83,4.47,0,1.61-.29,3.15-.87,4.62s-1.39,2.77-2.43,3.89c-1.04,1.12-2.27,2.02-3.69,2.69-1.42.67-2.95,1-4.61,1Zm-7.68-12.24c0,1.13.18,2.23.54,3.3.36,1.07.88,2.01,1.55,2.82.67.82,1.48,1.47,2.43,1.95.95.49,2.02.73,3.2.73s2.31-.25,3.25-.76c.94-.51,1.74-1.18,2.4-2.02.66-.84,1.16-1.78,1.5-2.82.34-1.04.51-2.11.51-3.2,0-1.16-.18-2.26-.54-3.31s-.88-1.98-1.55-2.79c-.67-.8-1.47-1.45-2.41-1.94-.94-.49-1.99-.73-3.14-.73-1.22,0-2.31.25-3.26.76-.95.51-1.76,1.17-2.41,1.99-.66.82-1.16,1.75-1.51,2.8-.35,1.05-.53,2.12-.53,3.21Z"></path><path class="cls-1" d="m536.96,119.09v-24.14h3.81v20.77h12.95v3.37h-16.76Z"></path><path class="cls-1" d="m573.71,115.82c1.27,0,2.32-.25,3.16-.75.84-.5,1.51-1.15,2.02-1.96.51-.8.87-1.72,1.09-2.75.21-1.03.32-2.09.32-3.18v-12.24h3.84v12.24c0,1.65-.19,3.21-.58,4.67s-1,2.74-1.84,3.84c-.84,1.1-1.92,1.97-3.25,2.6-1.33.63-2.92.95-4.78.95s-3.55-.33-4.88-1c-1.33-.67-2.4-1.56-3.21-2.69-.82-1.12-1.41-2.41-1.77-3.86-.36-1.45-.54-2.96-.54-4.52v-12.24h3.81v12.24c0,1.11.11,2.18.32,3.21.21,1.03.58,1.95,1.09,2.75.51.8,1.19,1.45,2.04,1.94.85.49,1.9.73,3.15.73Z"></path><path class="cls-1" d="m615.26,98.32h-8.02v20.77h-3.84v-20.77h-8.06v-3.37h19.92v3.37Z"></path><path class="cls-1" d="m626.81,119.09v-24.14h3.81v24.14h-3.81Z"></path><path class="cls-1" d="m654.42,119.26c-1.72,0-3.29-.35-4.71-1.04-1.42-.69-2.63-1.61-3.65-2.75-1.02-1.14-1.81-2.45-2.36-3.93-.56-1.47-.83-2.98-.83-4.52s.29-3.15.88-4.62c.59-1.47,1.4-2.78,2.43-3.91,1.03-1.13,2.25-2.03,3.67-2.7,1.42-.67,2.96-1,4.64-1s3.29.36,4.71,1.07c1.42.71,2.63,1.65,3.64,2.81,1.01,1.16,1.79,2.46,2.35,3.93.55,1.46.83,2.95.83,4.47,0,1.61-.29,3.15-.87,4.62s-1.39,2.77-2.43,3.89c-1.04,1.12-2.27,2.02-3.69,2.69-1.42.67-2.95,1-4.61,1Zm-7.68-12.24c0,1.13.18,2.23.54,3.3.36,1.07.88,2.01,1.55,2.82.67.82,1.48,1.47,2.43,1.95.95.49,2.02.73,3.2.73s2.31-.25,3.25-.76c.94-.51,1.74-1.18,2.4-2.02.66-.84,1.16-1.78,1.5-2.82.34-1.04.51-2.11.51-3.2,0-1.16-.18-2.26-.54-3.31s-.88-1.98-1.55-2.79c-.67-.8-1.47-1.45-2.41-1.94-.94-.49-1.99-.73-3.14-.73-1.22,0-2.31.25-3.26.76-.95.51-1.76,1.17-2.41,1.99-.66.82-1.16,1.75-1.51,2.8-.35,1.05-.53,2.12-.53,3.21Z"></path><path class="cls-1" d="m682.09,102.09v17h-3.81v-24.14h2.99l13.8,17.41v-17.37h3.84v24.1h-3.16l-13.67-17Z"></path><path class="cls-1" d="m726.97,100.63c-.23-.25-.56-.52-.99-.8-.43-.28-.94-.55-1.51-.8-.58-.25-1.21-.45-1.9-.61s-1.4-.24-2.12-.24c-1.61,0-2.79.29-3.55.88-.76.59-1.14,1.41-1.14,2.45,0,.59.12,1.07.36,1.44.24.37.61.7,1.1.99.5.28,1.12.53,1.87.75s1.62.45,2.62.7c1.22.29,2.33.62,3.32.99.99.36,1.82.8,2.5,1.33.68.52,1.21,1.16,1.58,1.92.37.76.56,1.68.56,2.77,0,1.22-.23,2.28-.7,3.16-.46.88-1.1,1.6-1.9,2.16-.8.56-1.74.96-2.8,1.22-1.07.26-2.21.39-3.43.39-1.84,0-3.61-.28-5.32-.83-1.71-.56-3.26-1.37-4.64-2.43l1.73-3.26c.29.29.72.62,1.27.99.55.36,1.2.7,1.94,1s1.54.57,2.4.78c.86.22,1.76.32,2.69.32,1.5,0,2.65-.26,3.47-.78.82-.52,1.22-1.29,1.22-2.31,0-.61-.15-1.12-.46-1.53s-.74-.76-1.31-1.07c-.57-.31-1.26-.58-2.07-.83-.82-.25-1.75-.51-2.79-.78-1.2-.32-2.25-.65-3.15-1s-1.64-.78-2.23-1.28c-.59-.5-1.04-1.08-1.34-1.75-.31-.67-.46-1.48-.46-2.43,0-1.18.23-2.23.68-3.14s1.07-1.69,1.85-2.31c.78-.62,1.71-1.09,2.77-1.41,1.06-.32,2.22-.48,3.47-.48,1.63,0,3.14.26,4.52.78,1.38.52,2.59,1.17,3.64,1.94l-1.73,3.13Z"></path></g><g><path class="cls-1" d="m483.99,31.48c-1.72,0-3.29-.35-4.71-1.04s-2.63-1.61-3.65-2.75c-1.02-1.14-1.81-2.45-2.36-3.93-.56-1.47-.83-2.98-.83-4.52s.29-3.15.88-4.62c.59-1.47,1.4-2.78,2.43-3.91,1.03-1.13,2.25-2.03,3.67-2.7,1.42-.67,2.96-1,4.64-1s3.29.36,4.71,1.07c1.42.71,2.63,1.65,3.64,2.8,1.01,1.16,1.79,2.46,2.35,3.93.55,1.46.83,2.95.83,4.47,0,1.61-.29,3.15-.87,4.62s-1.39,2.77-2.43,3.89c-1.04,1.12-2.27,2.02-3.69,2.69-1.42.67-2.95,1-4.61,1Zm-7.68-12.24c0,1.13.18,2.23.54,3.3s.88,2.01,1.55,2.82c.67.82,1.48,1.47,2.43,1.95.95.49,2.02.73,3.2.73s2.31-.25,3.25-.77c.94-.51,1.74-1.18,2.4-2.02.66-.84,1.16-1.78,1.5-2.82s.51-2.11.51-3.2c0-1.16-.18-2.26-.54-3.31-.36-1.05-.88-1.98-1.55-2.79-.67-.8-1.47-1.45-2.41-1.94-.94-.49-1.99-.73-3.14-.73-1.22,0-2.31.25-3.26.76-.95.51-1.76,1.17-2.41,1.99-.66.82-1.16,1.75-1.51,2.8-.35,1.05-.53,2.12-.53,3.21Z"></path><path class="cls-1" d="m507.86,31.31V7.17h16.08v3.37h-12.27v7.21h10.27v3.16h-10.27v10.4h-3.81Z"></path><path class="cls-1" d="m535.87,31.31V7.17h16.08v3.37h-12.27v7.21h10.27v3.16h-10.27v10.4h-3.81Z"></path><path class="cls-1" d="m577.31,12.85c-.23-.25-.56-.52-.99-.8-.43-.28-.94-.55-1.51-.8-.58-.25-1.21-.45-1.9-.61s-1.4-.24-2.12-.24c-1.61,0-2.79.29-3.55.88-.76.59-1.14,1.41-1.14,2.45,0,.59.12,1.07.36,1.44.24.37.61.7,1.1.99.5.28,1.12.53,1.87.75s1.62.45,2.62.7c1.22.29,2.33.62,3.32.99.99.36,1.82.8,2.5,1.33.68.52,1.21,1.16,1.58,1.92.37.76.56,1.68.56,2.77,0,1.22-.23,2.28-.7,3.16-.46.88-1.1,1.6-1.9,2.16-.8.56-1.74.96-2.8,1.22s-2.21.39-3.43.39c-1.84,0-3.61-.28-5.32-.83-1.71-.56-3.26-1.37-4.64-2.43l1.73-3.26c.29.29.72.62,1.27.99.55.36,1.2.7,1.94,1,.74.31,1.54.57,2.4.78.86.22,1.76.32,2.69.32,1.5,0,2.65-.26,3.47-.78.82-.52,1.22-1.29,1.22-2.31,0-.61-.15-1.12-.46-1.53-.31-.41-.74-.76-1.31-1.07-.57-.31-1.26-.58-2.07-.83-.82-.25-1.75-.51-2.79-.78-1.2-.32-2.25-.65-3.15-1-.9-.35-1.64-.78-2.23-1.27-.59-.5-1.04-1.08-1.34-1.75-.31-.67-.46-1.48-.46-2.43,0-1.18.23-2.23.68-3.15.45-.92,1.07-1.69,1.85-2.31.78-.62,1.71-1.09,2.77-1.41,1.06-.32,2.22-.48,3.47-.48,1.63,0,3.14.26,4.52.78,1.38.52,2.59,1.17,3.64,1.94l-1.73,3.13Z"></path><path class="cls-1" d="m611.96,7.17v24.14h-3.84v-10.64h-12.17v10.64h-3.81V7.17h3.81v10.1h12.17V7.17h3.84Z"></path><path class="cls-1" d="m635.76,31.48c-1.72,0-3.29-.35-4.71-1.04s-2.63-1.61-3.65-2.75c-1.02-1.14-1.81-2.45-2.36-3.93-.56-1.47-.83-2.98-.83-4.52s.29-3.15.88-4.62c.59-1.47,1.4-2.78,2.43-3.91,1.03-1.13,2.25-2.03,3.67-2.7,1.42-.67,2.96-1,4.64-1s3.29.36,4.71,1.07c1.42.71,2.63,1.65,3.64,2.8,1.01,1.16,1.79,2.46,2.35,3.93.55,1.46.83,2.95.83,4.47,0,1.61-.29,3.15-.87,4.62s-1.39,2.77-2.43,3.89c-1.04,1.12-2.27,2.02-3.69,2.69-1.42.67-2.95,1-4.61,1Zm-7.68-12.24c0,1.13.18,2.23.54,3.3s.88,2.01,1.55,2.82c.67.82,1.48,1.47,2.43,1.95.95.49,2.02.73,3.2.73s2.31-.25,3.25-.77c.94-.51,1.74-1.18,2.4-2.02.66-.84,1.16-1.78,1.5-2.82s.51-2.11.51-3.2c0-1.16-.18-2.26-.54-3.31-.36-1.05-.88-1.98-1.55-2.79-.67-.8-1.47-1.45-2.41-1.94-.94-.49-1.99-.73-3.14-.73-1.22,0-2.31.25-3.26.76-.95.51-1.76,1.17-2.41,1.99-.66.82-1.16,1.75-1.51,2.8-.35,1.05-.53,2.12-.53,3.21Z"></path><path class="cls-1" d="m659.62,31.31V7.17h10.5c1.09,0,2.09.23,3.01.68.92.45,1.71,1.05,2.36,1.79.66.74,1.17,1.58,1.55,2.52.37.94.56,1.9.56,2.87,0,.82-.11,1.6-.34,2.35-.23.75-.54,1.44-.95,2.07-.41.63-.91,1.18-1.5,1.65-.59.46-1.24.81-1.94,1.04l5.68,9.18h-4.32l-5.24-8.4h-5.58v8.4h-3.81Zm3.81-11.76h6.66c.54,0,1.04-.12,1.48-.36.44-.24.82-.57,1.14-.99.32-.42.57-.9.75-1.44.18-.54.27-1.12.27-1.73s-.11-1.19-.32-1.73c-.22-.54-.5-1.02-.85-1.43-.35-.41-.76-.73-1.22-.97-.46-.24-.95-.36-1.45-.36h-6.46v9.01Z"></path><path class="cls-1" d="m706.98,27.94v3.37h-16.56V7.17h16.25v3.37h-12.44v6.87h10.78v3.16h-10.78v7.38h12.75Z"></path><path class="cls-1" d="m488.24,56.74c-.23-.25-.56-.52-.99-.8-.43-.28-.94-.55-1.51-.8-.58-.25-1.21-.45-1.9-.61s-1.4-.24-2.12-.24c-1.61,0-2.79.29-3.55.88-.76.59-1.14,1.41-1.14,2.45,0,.59.12,1.07.36,1.44.24.37.61.7,1.1.99.5.28,1.12.53,1.87.75s1.62.45,2.62.7c1.22.29,2.33.62,3.32.99.99.36,1.82.8,2.5,1.33.68.52,1.21,1.16,1.58,1.92.37.76.56,1.68.56,2.77,0,1.22-.23,2.28-.7,3.16-.46.88-1.1,1.6-1.9,2.16-.8.56-1.74.96-2.8,1.22-1.07.26-2.21.39-3.43.39-1.84,0-3.61-.28-5.32-.83-1.71-.56-3.26-1.37-4.64-2.43l1.73-3.26c.29.29.72.62,1.27.99.55.36,1.2.7,1.94,1s1.54.57,2.4.78c.86.22,1.76.32,2.69.32,1.5,0,2.65-.26,3.47-.78.82-.52,1.22-1.29,1.22-2.31,0-.61-.15-1.12-.46-1.53-.31-.41-.74-.76-1.31-1.07-.57-.31-1.26-.58-2.07-.83-.82-.25-1.75-.51-2.79-.78-1.2-.32-2.25-.65-3.15-1-.9-.35-1.64-.78-2.23-1.27-.59-.5-1.04-1.08-1.34-1.75-.31-.67-.46-1.48-.46-2.43,0-1.18.23-2.23.68-3.15.45-.92,1.07-1.69,1.85-2.31.78-.62,1.71-1.09,2.77-1.41,1.06-.32,2.22-.48,3.47-.48,1.63,0,3.14.26,4.52.78,1.38.52,2.59,1.17,3.64,1.94l-1.73,3.13Z"></path><path class="cls-1" d="m520.61,54.43h-8.02v20.77h-3.84v-20.77h-8.06v-3.37h19.92v3.37Z"></path><path class="cls-1" d="m536.89,51.06h3.33l9.52,24.14h-4.01l-2.55-6.56h-9.31l-2.52,6.56h-4.04l9.59-24.14Zm5.54,14.75l-3.88-10.37-4.01,10.37h7.89Z"></path><path class="cls-1" d="m561.06,75.2v-24.14h16.08v3.37h-12.27v7.21h10.27v3.16h-10.27v10.4h-3.81Z"></path><path class="cls-1" d="m589.08,75.2v-24.14h16.08v3.37h-12.27v7.21h10.27v3.16h-10.27v10.4h-3.81Z"></path><path class="cls-1" d="m617.09,75.2v-24.14h3.81v24.14h-3.81Z"></path><path class="cls-1" d="m638.47,58.2v17h-3.81v-24.14h2.99l13.8,17.41v-17.37h3.84v24.1h-3.16l-13.67-17Z"></path><path class="cls-1" d="m685.97,72.21c-2.04,2.11-4.39,3.16-7.04,3.16-1.61,0-3.11-.33-4.49-1-1.38-.67-2.58-1.57-3.6-2.7-1.02-1.13-1.82-2.45-2.4-3.94-.58-1.5-.87-3.06-.87-4.69s.29-3.18.87-4.66c.58-1.47,1.38-2.76,2.4-3.88,1.02-1.11,2.23-1.99,3.64-2.63s2.94-.97,4.59-.97c2.31,0,4.25.48,5.81,1.44s2.74,2.24,3.54,3.82l-2.92,2.11c-.66-1.31-1.56-2.3-2.72-2.96-1.16-.66-2.43-.99-3.81-.99-1.13,0-2.17.24-3.09.73-.93.49-1.72,1.13-2.38,1.94-.66.8-1.16,1.74-1.51,2.8-.35,1.07-.53,2.18-.53,3.33,0,1.22.2,2.37.59,3.43.4,1.07.94,1.99,1.63,2.79.69.79,1.51,1.42,2.46,1.89.95.46,1.98.7,3.09.7,1.22,0,2.4-.28,3.52-.85s2.19-1.46,3.21-2.69v-2.58h-5.07v-2.82h8.26v12.21h-3.2v-2.99Z"></path><path class="cls-1" d="m488.24,100.63c-.23-.25-.56-.52-.99-.8-.43-.28-.94-.55-1.51-.8-.58-.25-1.21-.45-1.9-.61s-1.4-.24-2.12-.24c-1.61,0-2.79.29-3.55.88-.76.59-1.14,1.41-1.14,2.45,0,.59.12,1.07.36,1.44.24.37.61.7,1.1.99.5.28,1.12.53,1.87.75s1.62.45,2.62.7c1.22.29,2.33.62,3.32.99.99.36,1.82.8,2.5,1.33.68.52,1.21,1.16,1.58,1.92.37.76.56,1.68.56,2.77,0,1.22-.23,2.28-.7,3.16-.46.88-1.1,1.6-1.9,2.16-.8.56-1.74.96-2.8,1.22-1.07.26-2.21.39-3.43.39-1.84,0-3.61-.28-5.32-.83-1.71-.56-3.26-1.37-4.64-2.43l1.73-3.26c.29.29.72.62,1.27.99.55.36,1.2.7,1.94,1s1.54.57,2.4.78c.86.22,1.76.32,2.69.32,1.5,0,2.65-.26,3.47-.78.82-.52,1.22-1.29,1.22-2.31,0-.61-.15-1.12-.46-1.53s-.74-.76-1.31-1.07c-.57-.31-1.26-.58-2.07-.83-.82-.25-1.75-.51-2.79-.78-1.2-.32-2.25-.65-3.15-1s-1.64-.78-2.23-1.28c-.59-.5-1.04-1.08-1.34-1.75-.31-.67-.46-1.48-.46-2.43,0-1.18.23-2.23.68-3.14s1.07-1.69,1.85-2.31c.78-.62,1.71-1.09,2.77-1.41,1.06-.32,2.22-.48,3.47-.48,1.63,0,3.14.26,4.52.78,1.38.52,2.59,1.17,3.64,1.94l-1.73,3.13Z"></path><path class="cls-1" d="m513.09,119.26c-1.72,0-3.29-.35-4.71-1.04-1.42-.69-2.63-1.61-3.65-2.75-1.02-1.14-1.81-2.45-2.36-3.93-.56-1.47-.83-2.98-.83-4.52s.29-3.15.88-4.62c.59-1.47,1.4-2.78,2.43-3.91,1.03-1.13,2.25-2.03,3.67-2.7,1.42-.67,2.96-1,4.64-1s3.29.36,4.71,1.07c1.42.71,2.63,1.65,3.64,2.81,1.01,1.16,1.79,2.46,2.35,3.93.55,1.46.83,2.95.83,4.47,0,1.61-.29,3.15-.87,4.62s-1.39,2.77-2.43,3.89c-1.04,1.12-2.27,2.02-3.69,2.69-1.42.67-2.95,1-4.61,1Zm-7.68-12.24c0,1.13.18,2.23.54,3.3.36,1.07.88,2.01,1.55,2.82.67.82,1.48,1.47,2.43,1.95.95.49,2.02.73,3.2.73s2.31-.25,3.25-.76c.94-.51,1.74-1.18,2.4-2.02.66-.84,1.16-1.78,1.5-2.82.34-1.04.51-2.11.51-3.2,0-1.16-.18-2.26-.54-3.31s-.88-1.98-1.55-2.79c-.67-.8-1.47-1.45-2.41-1.94-.94-.49-1.99-.73-3.14-.73-1.22,0-2.31.25-3.26.76-.95.51-1.76,1.17-2.41,1.99-.66.82-1.16,1.75-1.51,2.8-.35,1.05-.53,2.12-.53,3.21Z"></path><path class="cls-1" d="m536.96,119.09v-24.14h3.81v20.77h12.95v3.37h-16.76Z"></path><path class="cls-1" d="m573.71,115.83c1.27,0,2.32-.25,3.16-.75.84-.5,1.51-1.15,2.02-1.96.51-.8.87-1.72,1.09-2.75.21-1.03.32-2.09.32-3.18v-12.24h3.84v12.24c0,1.65-.19,3.21-.58,4.67s-1,2.74-1.84,3.84c-.84,1.1-1.92,1.97-3.25,2.6-1.33.63-2.92.95-4.78.95s-3.55-.33-4.88-1c-1.33-.67-2.4-1.56-3.21-2.69-.82-1.12-1.41-2.41-1.77-3.86-.36-1.45-.54-2.96-.54-4.52v-12.24h3.81v12.24c0,1.11.11,2.18.32,3.21.21,1.03.58,1.95,1.09,2.75.51.8,1.19,1.45,2.04,1.94.85.49,1.9.73,3.15.73Z"></path><path class="cls-1" d="m615.25,98.32h-8.02v20.77h-3.84v-20.77h-8.06v-3.37h19.92v3.37Z"></path><path class="cls-1" d="m626.81,119.09v-24.14h3.81v24.14h-3.81Z"></path><path class="cls-1" d="m654.42,119.26c-1.72,0-3.29-.35-4.71-1.04-1.42-.69-2.63-1.61-3.65-2.75-1.02-1.14-1.81-2.45-2.36-3.93-.56-1.47-.83-2.98-.83-4.52s.29-3.15.88-4.62c.59-1.47,1.4-2.78,2.43-3.91,1.03-1.13,2.25-2.03,3.67-2.7,1.42-.67,2.96-1,4.64-1s3.29.36,4.71,1.07c1.42.71,2.63,1.65,3.64,2.81,1.01,1.16,1.79,2.46,2.35,3.93.55,1.46.83,2.95.83,4.47,0,1.61-.29,3.15-.87,4.62s-1.39,2.77-2.43,3.89c-1.04,1.12-2.27,2.02-3.69,2.69-1.42.67-2.95,1-4.61,1Zm-7.68-12.24c0,1.13.18,2.23.54,3.3.36,1.07.88,2.01,1.55,2.82.67.82,1.48,1.47,2.43,1.95.95.49,2.02.73,3.2.73s2.31-.25,3.25-.76c.94-.51,1.74-1.18,2.4-2.02.66-.84,1.16-1.78,1.5-2.82.34-1.04.51-2.11.51-3.2,0-1.16-.18-2.26-.54-3.31s-.88-1.98-1.55-2.79c-.67-.8-1.47-1.45-2.41-1.94-.94-.49-1.99-.73-3.14-.73-1.22,0-2.31.25-3.26.76-.95.51-1.76,1.17-2.41,1.99-.66.82-1.16,1.75-1.51,2.8-.35,1.05-.53,2.12-.53,3.21Z"></path><path class="cls-1" d="m682.09,102.09v17h-3.81v-24.14h2.99l13.8,17.41v-17.37h3.84v24.1h-3.16l-13.67-17Z"></path><path class="cls-1" d="m726.97,100.63c-.23-.25-.56-.52-.99-.8-.43-.28-.94-.55-1.51-.8-.58-.25-1.21-.45-1.9-.61s-1.4-.24-2.12-.24c-1.61,0-2.79.29-3.55.88-.76.59-1.14,1.41-1.14,2.45,0,.59.12,1.07.36,1.44.24.37.61.7,1.1.99.5.28,1.12.53,1.87.75s1.62.45,2.62.7c1.22.29,2.33.62,3.32.99.99.36,1.82.8,2.5,1.33.68.52,1.21,1.16,1.58,1.92.37.76.56,1.68.56,2.77,0,1.22-.23,2.28-.7,3.16-.46.88-1.1,1.6-1.9,2.16-.8.56-1.74.96-2.8,1.22-1.07.26-2.21.39-3.43.39-1.84,0-3.61-.28-5.32-.83-1.71-.56-3.26-1.37-4.64-2.43l1.73-3.26c.29.29.72.62,1.27.99.55.36,1.2.7,1.94,1s1.54.57,2.4.78c.86.22,1.76.32,2.69.32,1.5,0,2.65-.26,3.47-.78.82-.52,1.22-1.29,1.22-2.31,0-.61-.15-1.12-.46-1.53s-.74-.76-1.31-1.07c-.57-.31-1.26-.58-2.07-.83-.82-.25-1.75-.51-2.79-.78-1.2-.32-2.25-.65-3.15-1s-1.64-.78-2.23-1.28c-.59-.5-1.04-1.08-1.34-1.75-.31-.67-.46-1.48-.46-2.43,0-1.18.23-2.23.68-3.14s1.07-1.69,1.85-2.31c.78-.62,1.71-1.09,2.77-1.41,1.06-.32,2.22-.48,3.47-.48,1.63,0,3.14.26,4.52.78,1.38.52,2.59,1.17,3.64,1.94l-1.73,3.13Z"></path></g></g></g></svg> 